<svg version="1.1" id="Layer_1" xmlns="http://www.w3.org/2000/svg" xmlns:xlink="http://www.w3.org/1999/xlink" x="0px" y="0px"
	 width="100%" viewBox="0 0 1028 244" enable-background="new 0 0 1028 244" xml:space="preserve">
<path fill="#FEFEFE" opacity="1.000000" stroke="none" 
	d="
M746.000000,245.000000 
	C497.382080,245.000000 249.264145,245.000000 1.073109,245.000000 
	C1.073109,163.731430 1.073109,82.462791 1.073109,1.097070 
	C343.666656,1.097070 686.333313,1.097070 1028.972046,1.097070 
	C1028.972046,82.402580 1028.972046,163.701294 1028.972046,245.000000 
	C934.796082,245.000000 840.648010,245.000000 746.000000,245.000000 
M605.286072,162.297714 
	C605.446777,165.718353 602.882935,164.797531 601.096619,164.803070 
	C586.100525,164.849411 571.104187,164.838776 556.107971,164.812210 
	C554.852295,164.809982 553.597046,164.565643 551.923767,164.389908 
	C551.923767,129.113937 551.923767,94.214897 551.923767,59.374443 
	C539.720642,59.374443 527.983154,59.374443 516.328369,59.374443 
	C516.328369,103.735596 516.328369,147.789444 516.328369,192.281708 
	C553.879517,192.281708 591.100159,192.281708 628.724121,192.281708 
	C628.724121,208.330872 628.724121,223.942123 628.724121,239.496857 
	C639.709961,239.496857 650.283325,239.496857 660.808228,239.496857 
	C660.808228,214.729111 660.808228,190.303329 660.808228,165.465942 
	C654.451172,165.465942 648.348816,165.465942 641.682129,165.465942 
	C641.682129,129.840881 641.682129,94.623657 641.682129,59.285301 
	C629.342163,59.285301 617.580811,59.285301 605.290283,59.285301 
	C605.290283,93.442909 605.290283,127.385895 605.286072,162.297714 
M719.930481,156.441437 
	C719.930481,124.039307 719.930481,91.637169 719.930481,59.417400 
	C707.409607,59.417400 695.661865,59.417400 683.900574,59.417400 
	C683.900574,103.696808 683.900574,147.629120 683.900574,192.064270 
	C721.313599,192.064270 758.529297,192.064270 796.268921,192.064270 
	C796.268921,208.274841 796.268921,223.987762 796.268921,239.590912 
	C807.240784,239.590912 817.682373,239.590912 828.311768,239.590912 
	C828.311768,214.836731 828.311768,190.328033 828.311768,165.453201 
	C821.806580,165.453201 815.689331,165.453201 809.056519,165.453201 
	C809.056519,129.867615 809.056519,94.645363 809.056519,59.317093 
	C796.792908,59.317093 785.052490,59.317093 772.713257,59.317093 
	C772.713257,94.584312 772.713257,129.609451 772.713257,164.571182 
	C754.846863,164.571182 737.582397,164.571182 719.930481,164.571182 
	C719.930481,162.015945 719.930481,159.717697 719.930481,156.441437 
M469.449738,59.071014 
	C459.285583,59.071014 449.117310,59.233475 438.959595,58.977703 
	C435.666412,58.894775 433.930908,60.072365 432.204315,62.713493 
	C413.913818,90.692337 395.503296,118.592781 377.097473,146.496094 
	C376.196228,147.862350 375.031891,149.055023 374.565979,149.624512 
	C375.218292,119.688316 375.874939,89.553413 376.532593,59.372154 
	C364.048309,59.372154 352.654022,59.372154 341.327698,59.372154 
	C341.327698,103.727684 341.327698,147.781296 341.327698,192.000916 
	C353.806335,192.000916 365.963715,191.767075 378.104126,192.119492 
	C382.761902,192.254684 385.437042,190.937729 388.042175,186.901627 
	C405.809662,159.374405 423.902435,132.057083 441.895599,104.675545 
	C442.713531,103.430832 443.582397,102.219566 444.299469,101.178612 
	C443.732849,131.534592 443.171661,161.598145 442.609497,191.713623 
	C455.023407,191.713623 466.425446,191.713623 477.723511,191.713623 
	C477.723511,147.378586 477.723511,103.331665 477.723511,59.071014 
	C475.063202,59.071014 472.747070,59.071014 469.449738,59.071014 
M145.526337,155.703934 
	C149.629456,155.703934 153.732574,155.703934 157.838837,155.703934 
	C157.838837,144.769165 157.838837,134.496964 157.838837,123.805344 
	C150.696960,123.805344 143.777618,123.805344 136.310120,123.805344 
	C136.310120,87.016220 136.310120,50.643761 136.310120,13.929514 
	C124.451340,13.929514 113.148979,13.826600 101.853523,14.059057 
	C100.432945,14.088293 98.681602,15.605785 97.701111,16.901190 
	C70.397293,52.974377 43.169968,89.105469 15.953214,125.244469 
	C15.180449,126.270561 14.126889,127.477966 14.107411,128.616287 
	C13.954710,137.540070 14.022789,146.467636 14.022789,155.823578 
	C42.886288,155.823578 71.133873,155.823578 99.779419,155.823578 
	C99.779419,168.014069 99.779419,179.768997 99.779419,191.759857 
	C112.089249,191.759857 123.995857,191.759857 136.496704,191.759857 
	C136.496704,179.705765 136.496704,167.840363 136.496704,155.703903 
	C139.573822,155.703903 142.059402,155.703903 145.526337,155.703934 
M182.161438,68.552040 
	C182.161438,109.640579 182.161438,150.729111 182.161438,191.732361 
	C194.622925,191.732361 206.385406,191.732361 218.663971,191.732361 
	C218.663971,156.556198 218.663971,121.648094 218.663971,86.680473 
	C234.907715,86.680473 250.627411,86.680473 266.832520,86.680473 
	C266.832520,121.946060 266.832520,156.837570 266.832520,191.743362 
	C279.076721,191.743362 290.828644,191.743362 302.593750,191.743362 
	C302.593750,147.430527 302.593750,103.379295 302.593750,59.367199 
	C262.339905,59.367199 222.426682,59.367199 182.161453,59.367199 
	C182.161453,62.298447 182.161453,64.934311 182.161438,68.552040 
M868.501343,192.002136 
	C881.826050,192.002121 895.174927,192.491821 908.467285,191.835831 
	C917.860657,191.372269 927.458618,190.356491 936.469360,187.823181 
	C954.629456,182.717529 964.820374,167.967773 964.485535,149.459579 
	C964.144592,130.610886 954.689819,119.255486 935.015503,113.898575 
	C921.659485,110.262009 907.997864,110.516113 894.350525,110.483986 
	C892.111572,110.478722 889.872681,110.483253 887.186096,110.483253 
	C887.186096,92.921516 887.186096,76.184242 887.186096,59.320526 
	C874.982971,59.320526 863.244934,59.320526 851.338257,59.320526 
	C851.338257,103.604179 851.338257,147.636581 851.338257,192.002136 
	C856.901489,192.002136 862.201782,192.002136 868.501343,192.002136 
M1019.930054,158.500000 
	C1019.930054,125.430168 1019.930054,92.360329 1019.930054,59.382637 
	C1007.457764,59.382637 995.704285,59.382637 983.858032,59.382637 
	C983.858032,103.629387 983.858032,147.564392 983.858032,191.701416 
	C995.895264,191.701416 1007.773010,191.701416 1019.930054,191.701416 
	C1019.930054,180.769180 1019.930054,170.134598 1019.930054,158.500000 
z"/>
<path fill="#202227" opacity="1.000000" stroke="none" 
	d="
M605.288208,161.813293 
	C605.290283,127.385895 605.290283,93.442909 605.290283,59.285301 
	C617.580811,59.285301 629.342163,59.285301 641.682129,59.285301 
	C641.682129,94.623657 641.682129,129.840881 641.682129,165.465942 
	C648.348816,165.465942 654.451172,165.465942 660.808228,165.465942 
	C660.808228,190.303329 660.808228,214.729111 660.808228,239.496857 
	C650.283325,239.496857 639.709961,239.496857 628.724121,239.496857 
	C628.724121,223.942123 628.724121,208.330872 628.724121,192.281708 
	C591.100159,192.281708 553.879517,192.281708 516.328369,192.281708 
	C516.328369,147.789444 516.328369,103.735596 516.328369,59.374443 
	C527.983154,59.374443 539.720642,59.374443 551.923767,59.374443 
	C551.923767,94.214897 551.923767,129.113937 551.923767,164.389908 
	C553.597046,164.565643 554.852295,164.809982 556.107971,164.812210 
	C571.104187,164.838776 586.100525,164.849411 601.096619,164.803070 
	C602.882935,164.797531 605.446777,165.718353 605.288208,161.813293 
z"/>
<path fill="#1F2126" opacity="1.000000" stroke="none" 
	d="
M719.930481,156.930435 
	C719.930481,159.717697 719.930481,162.015945 719.930481,164.571182 
	C737.582397,164.571182 754.846863,164.571182 772.713257,164.571182 
	C772.713257,129.609451 772.713257,94.584312 772.713257,59.317093 
	C785.052490,59.317093 796.792908,59.317093 809.056519,59.317093 
	C809.056519,94.645363 809.056519,129.867615 809.056519,165.453201 
	C815.689331,165.453201 821.806580,165.453201 828.311768,165.453201 
	C828.311768,190.328033 828.311768,214.836731 828.311768,239.590912 
	C817.682373,239.590912 807.240784,239.590912 796.268921,239.590912 
	C796.268921,223.987762 796.268921,208.274841 796.268921,192.064270 
	C758.529297,192.064270 721.313599,192.064270 683.900574,192.064270 
	C683.900574,147.629120 683.900574,103.696808 683.900574,59.417400 
	C695.661865,59.417400 707.409607,59.417400 719.930481,59.417400 
	C719.930481,91.637169 719.930481,124.039307 719.930481,156.930435 
z"/>
<path fill="#1F2126" opacity="1.000000" stroke="none" 
	d="
M469.940369,59.071014 
	C472.747070,59.071014 475.063202,59.071014 477.723511,59.071014 
	C477.723511,103.331665 477.723511,147.378586 477.723511,191.713623 
	C466.425446,191.713623 455.023407,191.713623 442.609497,191.713623 
	C443.171661,161.598145 443.732849,131.534592 444.299469,101.178612 
	C443.582397,102.219566 442.713531,103.430832 441.895599,104.675545 
	C423.902435,132.057083 405.809662,159.374405 388.042175,186.901627 
	C385.437042,190.937729 382.761902,192.254684 378.104126,192.119492 
	C365.963715,191.767075 353.806335,192.000916 341.327698,192.000916 
	C341.327698,147.781296 341.327698,103.727684 341.327698,59.372154 
	C352.654022,59.372154 364.048309,59.372154 376.532593,59.372154 
	C375.874939,89.553413 375.218292,119.688316 374.565979,149.624512 
	C375.031891,149.055023 376.196228,147.862350 377.097473,146.496094 
	C395.503296,118.592781 413.913818,90.692337 432.204315,62.713493 
	C433.930908,60.072365 435.666412,58.894775 438.959595,58.977703 
	C449.117310,59.233475 459.285583,59.071014 469.940369,59.071014 
z"/>
<path fill="#1F2126" opacity="1.000000" stroke="none" 
	d="
M145.035660,155.703918 
	C142.059402,155.703903 139.573822,155.703903 136.496704,155.703903 
	C136.496704,167.840363 136.496704,179.705765 136.496704,191.759857 
	C123.995857,191.759857 112.089249,191.759857 99.779419,191.759857 
	C99.779419,179.768997 99.779419,168.014069 99.779419,155.823578 
	C71.133873,155.823578 42.886288,155.823578 14.022789,155.823578 
	C14.022789,146.467636 13.954710,137.540070 14.107411,128.616287 
	C14.126889,127.477966 15.180449,126.270561 15.953214,125.244469 
	C43.169968,89.105469 70.397293,52.974377 97.701111,16.901190 
	C98.681602,15.605785 100.432945,14.088293 101.853523,14.059057 
	C113.148979,13.826600 124.451340,13.929514 136.310120,13.929514 
	C136.310120,50.643761 136.310120,87.016220 136.310120,123.805344 
	C143.777618,123.805344 150.696960,123.805344 157.838837,123.805344 
	C157.838837,134.496964 157.838837,144.769165 157.838837,155.703934 
	C153.732574,155.703934 149.629456,155.703934 145.035660,155.703918 
M99.846413,66.552452 
	C99.846413,63.025074 99.846413,59.497696 99.846413,54.603306 
	C82.048904,78.237144 65.183517,100.633194 47.905804,123.576782 
	C65.891068,123.576782 82.628067,123.576782 99.846405,123.576782 
	C99.846405,104.719284 99.846405,86.127380 99.846413,66.552452 
z"/>
<path fill="#202227" opacity="1.000000" stroke="none" 
	d="
M182.161438,68.061111 
	C182.161453,64.934311 182.161453,62.298447 182.161453,59.367199 
	C222.426682,59.367199 262.339905,59.367199 302.593750,59.367199 
	C302.593750,103.379295 302.593750,147.430527 302.593750,191.743362 
	C290.828644,191.743362 279.076721,191.743362 266.832520,191.743362 
	C266.832520,156.837570 266.832520,121.946060 266.832520,86.680473 
	C250.627411,86.680473 234.907715,86.680473 218.663971,86.680473 
	C218.663971,121.648094 218.663971,156.556198 218.663971,191.732361 
	C206.385406,191.732361 194.622925,191.732361 182.161438,191.732361 
	C182.161438,150.729111 182.161438,109.640579 182.161438,68.061111 
z"/>
<path fill="#202227" opacity="1.000000" stroke="none" 
	d="
M868.001709,192.002136 
	C862.201782,192.002136 856.901489,192.002136 851.338257,192.002136 
	C851.338257,147.636581 851.338257,103.604179 851.338257,59.320526 
	C863.244934,59.320526 874.982971,59.320526 887.186096,59.320526 
	C887.186096,76.184242 887.186096,92.921516 887.186096,110.483253 
	C889.872681,110.483253 892.111572,110.478722 894.350525,110.483986 
	C907.997864,110.516113 921.659485,110.262009 935.015503,113.898575 
	C954.689819,119.255486 964.144592,130.610886 964.485535,149.459579 
	C964.820374,167.967773 954.629456,182.717529 936.469360,187.823181 
	C927.458618,190.356491 917.860657,191.372269 908.467285,191.835831 
	C895.174927,192.491821 881.826050,192.002121 868.001709,192.002136 
M896.548462,167.004684 
	C903.769165,166.224670 911.225220,166.311630 918.147522,164.432404 
	C925.797058,162.355759 928.721191,156.477646 928.078125,148.643738 
	C927.578369,142.556808 924.016052,138.171692 916.339294,137.087372 
	C906.916382,135.756363 897.303406,135.770889 887.516235,135.188492 
	C887.516235,146.375519 887.516235,156.445175 887.516235,167.004700 
	C890.344360,167.004700 892.956909,167.004700 896.548462,167.004684 
z"/>
<path fill="#1F2126" opacity="1.000000" stroke="none" 
	d="
M1019.930054,159.000000 
	C1019.930054,170.134598 1019.930054,180.769180 1019.930054,191.701416 
	C1007.773010,191.701416 995.895264,191.701416 983.858032,191.701416 
	C983.858032,147.564392 983.858032,103.629387 983.858032,59.382637 
	C995.704285,59.382637 1007.457764,59.382637 1019.930054,59.382637 
	C1019.930054,92.360329 1019.930054,125.430168 1019.930054,159.000000 
z"/>
<path fill="#FAFAFA" opacity="1.000000" stroke="none" 
	d="
M99.846405,67.043961 
	C99.846405,86.127380 99.846405,104.719284 99.846405,123.576782 
	C82.628067,123.576782 65.891068,123.576782 47.905804,123.576782 
	C65.183517,100.633194 82.048904,78.237144 99.846413,54.603306 
	C99.846413,59.497696 99.846413,63.025074 99.846405,67.043961 
z"/>
<path fill="#FBFBFB" opacity="1.000000" stroke="none" 
	d="
M896.058960,167.004700 
	C892.956909,167.004700 890.344360,167.004700 887.516235,167.004700 
	C887.516235,156.445175 887.516235,146.375519 887.516235,135.188492 
	C897.303406,135.770889 906.916382,135.756363 916.339294,137.087372 
	C924.016052,138.171692 927.578369,142.556808 928.078125,148.643738 
	C928.721191,156.477646 925.797058,162.355759 918.147522,164.432404 
	C911.225220,166.311630 903.769165,166.224670 896.058960,167.004700 
z"/>
</svg>